<svg xmlns="http://www.w3.org/2000/svg" xml:space="preserve" style="fill-rule:evenodd;clip-rule:evenodd;stroke-linejoin:round;stroke-miterlimit:2" viewBox="0 0 40 40"><path d="M39.028 19.51c0-10.206-8.514-18.492-19-18.492s-19 8.286-19 18.492c0 10.206 8.514 18.493 19 18.493 3.565 0 7.058-.977 10.08-2.818l8.92 4.833-4.019-9.133a18.184 18.184 0 0 0 4.019-11.375ZM20 29.206a2 2 0 1 1-.001 4.001A2 2 0 0 1 20 29.206Zm0-2.211s3-12.041 3-17.201a3.001 3.001 0 0 0-6 0c0 5.16 3 17.201 3 17.201Z" style="fill:#F0F0F0"/></svg>
